<svg width="2149" height="1175" viewBox="0 0 2149 1175" fill="none" xmlns="http://www.w3.org/2000/svg">
<path d="M1499.75 372.456C1537.64 635 1368.42 799.294 1158.79 799.294C936.907 799.294 757.082 637.146 757.082 402.259C757.082 167.372 940.317 5.22415 1158.79 5.22415C1235.89 3.97399 1311.75 24.6914 1377.51 64.956L1307.42 213.087C1266.89 185.448 1218.83 170.983 1169.78 171.666C1034.02 171.666 942.465 268.778 942.465 402.259C942.465 535.741 1030.86 632.727 1158.79 632.727C1252.62 632.727 1313.23 604.06 1336.47 522.481H1164.35L1235.95 372.456H1499.75ZM2148.85 474.114V629.822H2063.48V799.294H1880.37V629.822H1542.44V474.114L1880.37 3.32959H2063.48V474.114H2148.85ZM1730.22 474.114H1880.37V247.815L1730.22 474.114Z" fill="white"/>
<path d="M161.916 1069.79V1107.68H4.44141V903.099H158.507V940.984H51.2921V985.183H146.005V1021.93H51.2921V1069.79H161.916Z" fill="white"/>
<path d="M257.77 903.102H350.46C370.749 902.687 390.858 907.011 409.183 915.73C425.52 923.597 439.241 936.005 448.708 951.469C458.382 967.624 463.287 986.188 462.854 1005.01C463.29 1023.88 458.386 1042.48 448.708 1058.68C439.195 1074.08 425.483 1086.43 409.183 1094.3C390.858 1103.02 370.749 1107.34 350.46 1106.92H257.77V903.102ZM348.061 1068.28C365.953 1069.2 383.496 1063.08 396.934 1051.23C403.07 1045.26 407.864 1038.05 410.999 1030.08C414.134 1022.11 415.539 1013.57 415.118 1005.01C415.539 996.46 414.134 987.915 410.999 979.946C407.864 971.977 403.07 964.766 396.934 958.793C383.496 946.944 365.953 940.825 348.061 941.745H304.999V1068.03L348.061 1068.28Z" fill="white"/>
<path d="M579.295 1086.34C570.789 1077.06 564.247 1066.16 560.059 1054.29C555.871 1042.42 554.124 1029.82 554.923 1017.26V903.605H602.153V1016C602.153 1052.45 617.305 1070.72 647.613 1070.8C653.882 1071.21 660.164 1070.24 666.013 1067.94C671.862 1065.65 677.136 1062.1 681.459 1057.54C690.16 1045.52 694.279 1030.79 693.076 1016V903.605H739.674V1017.26C740.503 1029.82 738.77 1042.43 734.581 1054.3C730.391 1066.18 723.832 1077.07 715.302 1086.34C706.187 1094.73 695.468 1101.19 683.793 1105.33C672.118 1109.48 659.726 1111.22 647.36 1110.46C634.975 1111.23 622.563 1109.49 610.866 1105.35C599.168 1101.2 588.429 1094.74 579.295 1086.34Z" fill="white"/>
<path d="M885.781 1096.95C869.323 1088.22 855.598 1075.1 846.126 1059.06C836.415 1042.63 831.435 1023.84 831.731 1004.76C831.435 985.678 836.415 966.885 846.126 950.457C855.654 934.459 869.365 921.361 885.781 912.572C903.265 903.425 922.752 898.781 942.482 899.06C958.916 898.773 975.225 901.957 990.344 908.405C1004.28 914.369 1016.61 923.542 1026.33 935.177L996.026 963.085C989.828 955.504 982 949.42 973.122 945.287C964.244 941.154 954.546 939.08 944.754 939.218C932.98 939.004 921.356 941.878 911.038 947.553C901.273 952.917 893.218 960.927 887.8 970.662C882.181 981.043 879.354 992.705 879.593 1004.51C879.354 1016.31 882.181 1027.97 887.8 1038.35C893.218 1048.09 901.273 1056.1 911.038 1061.46C921.356 1067.13 932.98 1070.01 944.754 1069.79C954.581 1069.92 964.306 1067.79 973.19 1063.59C982.074 1059.39 989.885 1053.22 996.026 1045.55L1026.33 1073.58C1016.67 1085.4 1004.28 1094.68 990.218 1100.61C975.05 1107.04 958.702 1110.22 942.229 1109.95C922.624 1110.38 903.223 1105.91 885.781 1096.95Z" fill="white"/>
<path d="M1246.71 1063.35H1152L1133.93 1107.05H1085.57L1176.49 903.099H1223.09L1314.27 1107.05H1264.77L1246.71 1063.35ZM1231.8 1027.49L1199.48 949.319L1167.15 1027.49H1231.8Z" fill="white"/>
<path d="M1432.08 1096.95C1415.62 1088.22 1401.89 1075.1 1392.42 1059.06C1382.71 1042.63 1377.73 1023.84 1378.03 1004.76C1377.73 985.678 1382.71 966.885 1392.42 950.457C1401.89 934.414 1415.62 921.302 1432.08 912.572C1449.56 903.425 1469.05 898.781 1488.78 899.06C1505.21 898.773 1521.52 901.957 1536.64 908.405C1550.58 914.369 1562.91 923.542 1572.63 935.177L1542.32 963.085C1536.13 955.504 1528.3 949.42 1519.42 945.287C1510.54 941.154 1500.84 939.08 1491.05 939.218C1479.28 939.004 1467.65 941.878 1457.33 947.553C1447.57 952.917 1439.51 960.927 1434.1 970.662C1428.43 981.031 1425.56 992.693 1425.76 1004.51C1425.56 1016.32 1428.43 1027.98 1434.1 1038.35C1439.51 1048.09 1447.57 1056.1 1457.33 1061.46C1467.65 1067.13 1479.28 1070.01 1491.05 1069.79C1500.88 1069.92 1510.6 1067.79 1519.49 1063.59C1528.37 1059.39 1536.18 1053.22 1542.32 1045.55L1572.63 1073.58C1562.97 1085.4 1550.57 1094.68 1536.51 1100.61C1521.34 1107.03 1505 1110.21 1488.53 1109.95C1468.92 1110.38 1449.52 1105.91 1432.08 1096.95ZM1457.33 1172.72C1452.89 1171.95 1448.62 1170.41 1444.71 1168.17L1451.78 1148.72C1457.7 1151.54 1464.17 1153.01 1470.72 1153.02C1480.82 1153.02 1485.87 1149.98 1485.87 1143.8C1485.87 1137.61 1481.07 1135.34 1471.6 1135.34H1461.63L1469.2 1104.4H1494.59L1490.42 1121.32C1497.5 1121.69 1504.24 1124.5 1509.49 1129.27C1511.57 1131.41 1513.2 1133.94 1514.29 1136.71C1515.37 1139.49 1515.89 1142.46 1515.8 1145.44C1515.88 1149.68 1514.85 1153.87 1512.81 1157.59C1510.77 1161.31 1507.8 1164.44 1504.19 1166.65C1494.75 1172.18 1483.92 1174.85 1472.99 1174.36C1467.91 1174.48 1462.82 1174.02 1457.84 1172.97L1457.33 1172.72Z" fill="white"/>
<path d="M1793 1063.35H1698.29L1680.23 1107.68H1631.87L1722.66 903.729H1769.39L1860.82 1107.68H1811.32L1793 1063.35ZM1753.98 884.282C1749.37 881.825 1744.94 879.039 1740.72 875.947C1738.25 874.042 1735.68 872.272 1733.02 870.643C1731.2 869.615 1729.17 869.051 1727.08 869.001C1725.24 868.933 1723.4 869.271 1721.7 869.991C1719.99 870.711 1718.47 871.796 1717.23 873.169C1714.35 876.731 1712.87 881.221 1713.07 885.797H1690.08C1689.87 874.662 1693.28 863.76 1699.81 854.731C1702.67 851.029 1706.38 848.057 1710.61 846.06C1714.85 844.062 1719.5 843.096 1724.18 843.24C1728.86 843.151 1733.5 844.19 1737.69 846.27C1742.46 848.765 1747.02 851.637 1751.33 854.858C1753.76 856.819 1756.33 858.592 1759.03 860.161C1760.83 861.234 1762.87 861.842 1764.97 861.93C1766.8 861.964 1768.62 861.597 1770.3 860.856C1771.98 860.114 1773.48 859.015 1774.69 857.636C1777.49 854.465 1779.02 850.373 1778.99 846.144H1801.97C1802.14 857.04 1798.73 867.691 1792.25 876.452C1789.35 880.117 1785.64 883.053 1781.41 885.027C1777.17 887 1772.54 887.956 1767.87 887.818C1763.03 887.747 1758.27 886.536 1753.98 884.282ZM1778.1 1027.49L1745.77 949.318L1713.45 1027.49H1778.1Z" fill="white"/>
<path d="M1978.63 1096.82C1962.1 1088.1 1948.29 1074.99 1938.72 1058.94C1929.04 1042.59 1924.06 1023.88 1924.33 1004.89C1924.06 985.89 1929.04 967.188 1938.72 950.838C1948.32 934.81 1962.12 921.71 1978.63 912.953C1996.3 903.7 2016.01 899.012 2035.96 899.315C2055.83 899.017 2075.45 903.706 2093.04 912.953C2109.52 921.746 2123.31 934.838 2132.95 950.838C2142.72 967.154 2147.75 985.871 2147.47 1004.89C2147.75 1023.9 2142.72 1042.62 2132.95 1058.94C2123.34 1074.97 2109.54 1088.07 2093.04 1096.82C2075.45 1106.07 2055.83 1110.76 2035.96 1110.46C2016.01 1110.76 1996.3 1106.07 1978.63 1096.82ZM2068.54 1061.97C2078.14 1056.51 2086.05 1048.52 2091.4 1038.86C2097.06 1028.49 2099.93 1016.83 2099.73 1005.01C2099.93 993.201 2097.06 981.539 2091.4 971.17C2086.05 961.51 2078.14 953.513 2068.54 948.06C2058.61 942.451 2047.37 939.575 2035.96 939.725C2024.51 939.559 2013.23 942.435 2003.25 948.06C1993.65 953.513 1985.74 961.51 1980.4 971.17C1974.73 981.539 1971.86 993.201 1972.06 1005.01C1971.86 1016.83 1974.73 1028.49 1980.4 1038.86C1985.74 1048.52 1993.65 1056.51 2003.25 1061.97C2013.23 1067.59 2024.51 1070.47 2035.96 1070.3C2047.37 1070.45 2058.61 1067.58 2068.54 1061.97Z" fill="white"/>
<path d="M626.383 404.409L664.268 365.893L678.16 352.002C679.565 350.615 680.679 348.964 681.44 347.143C682.202 345.322 682.593 343.368 682.593 341.394C682.593 339.42 682.202 337.466 681.44 335.645C680.679 333.824 679.565 332.172 678.16 330.786L351.842 4.34331C348.988 1.55869 345.159 0 341.172 0C337.184 0 333.355 1.55869 330.501 4.34331L4.43657 330.786C3.03148 332.172 1.91457 333.824 1.15308 335.645C0.391578 337.466 0 339.42 0 341.394C0 343.368 0.391578 345.322 1.15308 347.143C1.91457 348.964 3.03148 350.615 4.43657 352.002L56.843 404.409L18.329 442.925L4.43657 456.817C3.03148 458.203 1.91457 459.855 1.15308 461.676C0.391578 463.497 0 465.451 0 467.424C0 469.398 0.391578 471.353 1.15308 473.174C1.91457 474.995 3.03148 476.646 4.43657 478.033L331.007 804.601C333.861 807.386 337.69 808.945 341.677 808.945C345.665 808.945 349.494 807.386 352.348 804.601L678.662 478.159C680.068 476.772 681.184 475.121 681.946 473.3C682.707 471.479 683.099 469.525 683.099 467.551C683.099 465.577 682.707 463.623 681.946 461.802C681.184 459.981 680.068 458.329 678.662 456.943L626.383 404.409ZM43.08 341.267L341.739 42.6072L640.275 341.267L577.133 404.409L341.739 640.433L106.095 404.788L43.08 341.267ZM341.739 766.716L43.08 468.056L81.5971 429.539L331.007 678.318C333.861 681.102 337.69 682.661 341.677 682.661C345.665 682.661 349.494 681.102 352.348 678.318L366.237 664.427L601.884 428.782L639.769 467.298L341.739 766.716Z" fill="#FA7268"/>
<path d="M549.603 330.788L535.713 316.897L365.61 146.793L351.717 132.902C350.331 131.497 348.679 130.381 346.858 129.62C345.037 128.858 343.082 128.466 341.108 128.466C339.135 128.466 337.183 128.858 335.362 129.62C333.541 130.381 331.889 131.497 330.503 132.902L316.61 146.793L146.38 316.897L132.488 330.788C129.711 333.621 128.156 337.43 128.156 341.396C128.156 345.363 129.711 349.171 132.488 352.004L146.38 365.895L316.61 536.125L330.503 550.016C333.335 552.793 337.142 554.348 341.108 554.348C345.075 554.348 348.885 552.793 351.717 550.016L365.61 536.125L535.713 365.895L537.227 364.38L549.855 351.752C552.583 348.928 554.086 345.143 554.039 341.218C553.992 337.293 552.397 333.545 549.603 330.788ZM341.108 511.626L170.879 341.396L341.108 171.292L511.212 341.396L341.108 511.626Z" fill="#FA7268"/>
<path d="M421.169 330.782L351.713 261.327C348.881 258.55 345.071 256.994 341.104 256.994C337.138 256.994 333.331 258.55 330.499 261.327L261.043 330.782C258.266 333.615 256.711 337.424 256.711 341.39C256.711 345.357 258.266 349.165 261.043 351.998L330.499 421.454C331.885 422.859 333.537 423.975 335.358 424.736C337.179 425.498 339.131 425.89 341.104 425.89C343.078 425.89 345.033 425.498 346.854 424.736C348.675 423.975 350.327 422.859 351.713 421.454L421.169 351.998C422.574 350.612 423.691 348.96 424.453 347.139C425.214 345.318 425.606 343.364 425.606 341.39C425.606 339.416 425.214 337.462 424.453 335.641C423.691 333.82 422.574 332.169 421.169 330.782ZM341.104 383.064L299.433 341.39L341.104 299.716L382.779 341.39L341.104 383.064Z" fill="#FA7268"/>
</svg>
